<svg width="43" height="29" viewBox="0 0 43 29" fill="none" xmlns="http://www.w3.org/2000/svg">
<path d="M8.39312 28.12C5.51312 28.12 2.85979 28 0.433124 27.76L0.233124 23.92L3.15312 23.12V7.88C3.15312 7.18667 3.09979 6.73333 2.99312 6.52C2.88646 6.28 2.60646 6.06667 2.15312 5.88L0.0731242 4.72L0.313124 1.4C3.08646 1.18667 5.41979 1.02667 7.31312 0.919998C9.20646 0.786665 10.7265 0.719998 11.8731 0.719998C15.5531 0.719998 18.4998 1.14667 20.7131 2C22.9531 2.85333 24.5798 4.2 25.5931 6.04C26.6331 7.88 27.1531 10.32 27.1531 13.36C27.1531 17.2 26.2731 20.3067 24.5131 22.68C22.9398 24.7333 20.8465 26.16 18.2331 26.96C15.6465 27.7333 12.3665 28.12 8.39312 28.12ZM13.4331 22.4C15.6731 22.4 17.4465 22.1333 18.7531 21.6C18.9931 20.9333 19.2065 19.8933 19.3931 18.48C19.6065 17.0667 19.7131 15.7467 19.7131 14.52C19.7131 11.5067 19.0865 9.28 17.8331 7.84C16.6065 6.4 14.7265 5.68 12.1931 5.68C11.8465 5.68 11.5265 5.69333 11.2331 5.72C10.9398 5.74666 10.6598 5.77333 10.3931 5.8V22.2C11.4598 22.3333 12.4731 22.4 13.4331 22.4ZM15.4103 24.44L16.6503 23.68L26.0103 1L32.8103 0.399998L40.8103 22C41.077 22.6933 41.2636 23.1467 41.3703 23.36C41.477 23.5733 41.677 23.8667 41.9703 24.24L42.6903 25.16L42.4503 28H31.2103L30.8103 24.2L33.6503 23.48L32.3703 19.44L24.2503 19.56L23.3703 22.08C23.2903 22.32 23.2503 22.52 23.2503 22.68C23.2503 22.8667 23.277 23.0133 23.3303 23.12C23.4103 23.2 23.5303 23.2667 23.6903 23.32L26.4503 24.48L26.0503 28H15.5703L15.4103 24.44ZM28.4903 7.24L25.8503 14.92L31.0103 15.16L28.4903 7.24Z" fill="white"/>
</svg>
